<mxfile host="app.diagrams.net" modified="2023-07-19T12:41:54.653Z" agent="Mozilla/5.0 (Windows NT 10.0; Win64; x64) AppleWebKit/537.36 (KHTML, like Gecko) Chrome/114.0.0.0 Safari/537.36" etag="1OLqM8LgCXWTxWerqkNW" version="21.6.3" type="github">
  <diagram name="Страница 1" id="gKGlDjZlSK_D2ANKMqf6">
    <mxGraphModel dx="1050" dy="573" grid="1" gridSize="10" guides="1" tooltips="1" connect="1" arrows="1" fold="1" page="1" pageScale="1" pageWidth="827" pageHeight="1169" math="0" shadow="0">
      <root>
        <mxCell id="0" />
        <mxCell id="1" parent="0" />
        <mxCell id="RMbHzjB4NbbyDpLaG5V_-23" style="edgeStyle=orthogonalEdgeStyle;rounded=0;orthogonalLoop=1;jettySize=auto;html=1;entryX=0;entryY=0.5;entryDx=0;entryDy=0;entryPerimeter=0;" edge="1" parent="1" source="RMbHzjB4NbbyDpLaG5V_-2" target="RMbHzjB4NbbyDpLaG5V_-6">
          <mxGeometry relative="1" as="geometry" />
        </mxCell>
        <mxCell id="RMbHzjB4NbbyDpLaG5V_-2" value="Storage" style="shape=cylinder3;whiteSpace=wrap;html=1;boundedLbl=1;backgroundOutline=1;size=15;fontSize=18;fillColor=#fff2cc;strokeColor=#d6b656;" vertex="1" parent="1">
          <mxGeometry x="70" y="115" width="80" height="80" as="geometry" />
        </mxCell>
        <mxCell id="RMbHzjB4NbbyDpLaG5V_-20" value="" style="edgeStyle=orthogonalEdgeStyle;rounded=0;orthogonalLoop=1;jettySize=auto;html=1;" edge="1" parent="1" source="RMbHzjB4NbbyDpLaG5V_-3" target="RMbHzjB4NbbyDpLaG5V_-6">
          <mxGeometry relative="1" as="geometry" />
        </mxCell>
        <mxCell id="RMbHzjB4NbbyDpLaG5V_-3" value="Sales" style="shape=cylinder3;whiteSpace=wrap;html=1;boundedLbl=1;backgroundOutline=1;size=15;fontSize=18;fillColor=#fff2cc;strokeColor=#d6b656;" vertex="1" parent="1">
          <mxGeometry x="70" y="225" width="80" height="80" as="geometry" />
        </mxCell>
        <mxCell id="RMbHzjB4NbbyDpLaG5V_-19" value="" style="edgeStyle=orthogonalEdgeStyle;rounded=0;orthogonalLoop=1;jettySize=auto;html=1;" edge="1" parent="1" source="RMbHzjB4NbbyDpLaG5V_-4" target="RMbHzjB4NbbyDpLaG5V_-6">
          <mxGeometry relative="1" as="geometry" />
        </mxCell>
        <mxCell id="RMbHzjB4NbbyDpLaG5V_-4" value="Supplies" style="shape=cylinder3;whiteSpace=wrap;html=1;boundedLbl=1;backgroundOutline=1;size=15;fontSize=18;fillColor=#fff2cc;strokeColor=#d6b656;" vertex="1" parent="1">
          <mxGeometry x="70" y="335" width="80" height="80" as="geometry" />
        </mxCell>
        <mxCell id="RMbHzjB4NbbyDpLaG5V_-24" style="edgeStyle=orthogonalEdgeStyle;rounded=0;orthogonalLoop=1;jettySize=auto;html=1;entryX=0;entryY=0.5;entryDx=0;entryDy=0;entryPerimeter=0;" edge="1" parent="1" source="RMbHzjB4NbbyDpLaG5V_-5" target="RMbHzjB4NbbyDpLaG5V_-6">
          <mxGeometry relative="1" as="geometry" />
        </mxCell>
        <mxCell id="RMbHzjB4NbbyDpLaG5V_-5" value="etc." style="shape=cylinder3;whiteSpace=wrap;html=1;boundedLbl=1;backgroundOutline=1;size=15;fontSize=18;fillColor=#fff2cc;strokeColor=#d6b656;" vertex="1" parent="1">
          <mxGeometry x="70" y="445" width="80" height="80" as="geometry" />
        </mxCell>
        <mxCell id="RMbHzjB4NbbyDpLaG5V_-25" style="edgeStyle=orthogonalEdgeStyle;rounded=0;orthogonalLoop=1;jettySize=auto;html=1;exitX=1;exitY=0.5;exitDx=0;exitDy=0;exitPerimeter=0;" edge="1" parent="1" source="RMbHzjB4NbbyDpLaG5V_-6" target="RMbHzjB4NbbyDpLaG5V_-7">
          <mxGeometry relative="1" as="geometry" />
        </mxCell>
        <mxCell id="RMbHzjB4NbbyDpLaG5V_-26" style="edgeStyle=orthogonalEdgeStyle;rounded=0;orthogonalLoop=1;jettySize=auto;html=1;" edge="1" parent="1" source="RMbHzjB4NbbyDpLaG5V_-6" target="RMbHzjB4NbbyDpLaG5V_-10">
          <mxGeometry relative="1" as="geometry" />
        </mxCell>
        <mxCell id="RMbHzjB4NbbyDpLaG5V_-6" value="All data" style="shape=cylinder3;whiteSpace=wrap;html=1;boundedLbl=1;backgroundOutline=1;size=15;fontSize=18;fillColor=#dae8fc;strokeColor=#6c8ebf;" vertex="1" parent="1">
          <mxGeometry x="344" y="210" width="140" height="220" as="geometry" />
        </mxCell>
        <mxCell id="RMbHzjB4NbbyDpLaG5V_-7" value="storage balances" style="shape=cylinder3;whiteSpace=wrap;html=1;boundedLbl=1;backgroundOutline=1;size=15;fontSize=18;fillColor=#d5e8d4;strokeColor=#82b366;" vertex="1" parent="1">
          <mxGeometry x="660" y="140" width="110" height="120" as="geometry" />
        </mxCell>
        <mxCell id="RMbHzjB4NbbyDpLaG5V_-10" value="management reports" style="shape=cylinder3;whiteSpace=wrap;html=1;boundedLbl=1;backgroundOutline=1;size=15;fontSize=18;fillColor=#d5e8d4;strokeColor=#82b366;" vertex="1" parent="1">
          <mxGeometry x="660" y="370" width="110" height="120" as="geometry" />
        </mxCell>
        <mxCell id="RMbHzjB4NbbyDpLaG5V_-14" value="&lt;font style=&quot;font-size: 24px;&quot;&gt;Source Layer&lt;/font&gt;" style="text;html=1;strokeColor=none;fillColor=none;align=center;verticalAlign=middle;whiteSpace=wrap;rounded=0;" vertex="1" parent="1">
          <mxGeometry x="5" y="50" width="190" height="30" as="geometry" />
        </mxCell>
        <mxCell id="RMbHzjB4NbbyDpLaG5V_-15" value="&lt;font style=&quot;font-size: 24px;&quot;&gt;Storage Layer&lt;/font&gt;" style="text;html=1;strokeColor=none;fillColor=none;align=center;verticalAlign=middle;whiteSpace=wrap;rounded=0;" vertex="1" parent="1">
          <mxGeometry x="319" y="50" width="190" height="30" as="geometry" />
        </mxCell>
        <mxCell id="RMbHzjB4NbbyDpLaG5V_-16" value="&lt;font style=&quot;font-size: 24px;&quot;&gt;Business Layer&lt;/font&gt;" style="text;html=1;strokeColor=none;fillColor=none;align=center;verticalAlign=middle;whiteSpace=wrap;rounded=0;" vertex="1" parent="1">
          <mxGeometry x="610" y="50" width="190" height="30" as="geometry" />
        </mxCell>
        <mxCell id="RMbHzjB4NbbyDpLaG5V_-28" value="Excel" style="text;html=1;strokeColor=none;fillColor=none;align=center;verticalAlign=middle;whiteSpace=wrap;rounded=0;fontSize=18;" vertex="1" parent="1">
          <mxGeometry x="565" y="170" width="60" height="30" as="geometry" />
        </mxCell>
        <mxCell id="RMbHzjB4NbbyDpLaG5V_-29" style="edgeStyle=orthogonalEdgeStyle;rounded=0;orthogonalLoop=1;jettySize=auto;html=1;exitX=0.5;exitY=0;exitDx=0;exitDy=0;entryX=0.75;entryY=0;entryDx=0;entryDy=0;" edge="1" parent="1" source="RMbHzjB4NbbyDpLaG5V_-28" target="RMbHzjB4NbbyDpLaG5V_-28">
          <mxGeometry relative="1" as="geometry" />
        </mxCell>
        <mxCell id="RMbHzjB4NbbyDpLaG5V_-30" value="BI Tools" style="text;html=1;strokeColor=none;fillColor=none;align=center;verticalAlign=middle;whiteSpace=wrap;rounded=0;fontSize=18;" vertex="1" parent="1">
          <mxGeometry x="570" y="438" width="70" height="30" as="geometry" />
        </mxCell>
        <mxCell id="RMbHzjB4NbbyDpLaG5V_-34" value="" style="endArrow=none;html=1;rounded=0;" edge="1" parent="1">
          <mxGeometry width="50" height="50" relative="1" as="geometry">
            <mxPoint x="280" y="100" as="sourcePoint" />
            <mxPoint x="280" y="30" as="targetPoint" />
          </mxGeometry>
        </mxCell>
        <mxCell id="RMbHzjB4NbbyDpLaG5V_-35" value="" style="endArrow=none;html=1;rounded=0;" edge="1" parent="1">
          <mxGeometry width="50" height="50" relative="1" as="geometry">
            <mxPoint x="540" y="100" as="sourcePoint" />
            <mxPoint x="540" y="30" as="targetPoint" />
          </mxGeometry>
        </mxCell>
      </root>
    </mxGraphModel>
  </diagram>
</mxfile>
